I'm crossing my fingers and toes and and and... that this upload will finally go through! 

As for the file: 

 
Next to the last episode of Solitary 4.0 here..

who do you think is going to win? 
Who do you WANT to win?

I'm kind of rooting for number 6.. 
It's that southern boy charm thingy 
he's got going on I think.. ;o)

Enjoy!

Format : AVI
Format/Info : Audio Video Interleave
File size : 377 MiB
Duration : 45mn 13s
Overall bit rate : 1 165 Kbps

Video
Format : xvid
Codec ID : xvid
Duration : 45mn 13s
Bit rate : 1 024 Kbps
Width : 640 pixels
Height : 360 pixels
Display aspect ratio : 16:9
Frame rate : 30.000 fps
Bits/(Pixel*Frame) : 0.148
Stream size : 331 MiB (88%)

Audio
ID : 1
Format : MPEG Audio
Format version : Version 1
Format profile : Layer 3
Mode : Joint stereo
Format_Settings_ModeExtension : MS Stereo
Codec ID : 55
Codec ID/Hint : MP3
Duration : 45mn 13s
Bit rate mode : Constant
Bit rate : 128 Kbps
Channel(s) : 2 channels
Sampling rate : 48.0 KHz
Stream size : 41.4 MiB (11%)
Alignment : Aligned on interleaves
Interleave, duration : 24 ms (0.72 video frame)
Writing library : LAME3.97 (beta)